<?xml version="1.0" encoding="UTF-8" standalone="no"?>
<svg
   id="Layer_1"
   data-name="Layer 1"
   viewBox="0 0 706.99999 316.59344"
   version="1.1"
   sodipodi:docname="gamestar-new-logo.svg"
   inkscape:version="1.2.1 (9c6d41e410, 2022-07-14)"
   width="707"
   height="316.59344"
   xmlns:inkscape="http://www.inkscape.org/namespaces/inkscape"
   xmlns:sodipodi="http://sodipodi.sourceforge.net/DTD/sodipodi-0.dtd"
   xmlns="http://www.w3.org/2000/svg"
   xmlns:svg="http://www.w3.org/2000/svg"
   xmlns:rdf="http://www.w3.org/1999/02/22-rdf-syntax-ns#"
   xmlns:cc="http://creativecommons.org/ns#"
   xmlns:dc="http://purl.org/dc/elements/1.1/">
  <defs
     id="defs33" />
  <sodipodi:namedview
     id="namedview31"
     pagecolor="#ffffff"
     bordercolor="#000000"
     borderopacity="0.25"
     inkscape:showpageshadow="2"
     inkscape:pageopacity="0.0"
     inkscape:pagecheckerboard="0"
     inkscape:deskcolor="#d1d1d1"
     showgrid="false"
     inkscape:zoom="0.38550002"
     inkscape:cx="684.82487"
     inkscape:cy="469.52008"
     inkscape:window-width="1920"
     inkscape:window-height="974"
     inkscape:window-x="-11"
     inkscape:window-y="-11"
     inkscape:window-maximized="1"
     inkscape:current-layer="Layer_1" />
  <title
     id="title2">game-logo</title>
  <metadata
     id="metadata325">
    <rdf:RDF>
      <cc:Work
         rdf:about="">
        <dc:title>game-logo</dc:title>
      </cc:Work>
    </rdf:RDF>
  </metadata>
  <g
     id="g643"
     inkscape:label="GAME STAR">
    <path
       id="rect623-7-2-9-5-1-7-3-5"
       style="color:#000000;fill:#000000;stroke-width:0.198774"
       d="m 675.88692,266.39698 v 23.08235 20.68941 h 2.35051 v -20.66181 l 6.53164,0.0773 11.2135,20.58459 h 2.49622 l -11.28915,-20.58459 4.23116,0.0784 h 0.006 c 3.88621,0 7.05153,-3.25964 7.05153,-7.26167 v -8.74222 c 0,-4.00204 -3.16532,-7.26166 -7.05153,-7.26166 H 678.237 Z m 2.35051,2.42056 h 13.18988 c 2.6247,0 4.70104,2.13821 4.70104,4.84112 v 8.74221 c 0,2.70241 -2.07555,4.84026 -4.6995,4.84111 l -13.19142,-0.1556 z"
       sodipodi:nodetypes="ccccccccccsssscccsssccc"
       inkscape:label="R" />
    <path
       style="color:#000000;opacity:0.96;fill:#000000;stroke-width:0.2019;stroke-miterlimit:10"
       d="m 658.71347,266.39701 -11.29594,43.76979 h 2.28897 l 9.01367,-34.47217 9.0696,34.47416 h 2.21963 z"
       id="path2240-2-1"
       sodipodi:nodetypes="ccccccc"
       inkscape:label="A" />
    <path
       id="rect623-7-2-5"
       style="color:#000000;fill:#000000;stroke-width:0.201713"
       d="m 618.94816,266.39701 v 2.42056 h 10.08568 v 41.35121 h 2.42054 v -41.35121 h 10.08566 v -2.42056 h -10.08566 -2.42054 z"
       inkscape:label="T" />
    <path
       style="color:#000000;opacity:0.96;fill:#000000;stroke-width:0.201817;stroke-miterlimit:10;paint-order:markers fill stroke"
       d="m 601.89968,266.397 c -5.21374,0 -8.29706,1.63476 -9.85268,4.02308 -1.55562,2.3883 -1.56819,5.20109 -1.56819,7.39667 0,3.75755 0.86217,6.58797 2.86928,8.40326 2.00711,1.81528 4.89555,2.44527 8.55159,2.44527 3.41637,0 5.5885,0.45442 6.82058,1.51182 1.2321,1.05735 1.91428,2.94738 1.91428,6.62202 0,4.02996 -0.10339,6.88939 -1.06315,8.45499 -0.47987,0.78279 -1.1364,1.34286 -2.33278,1.77808 -1.1964,0.43518 -2.93384,0.69131 -5.33893,0.69131 -4.81051,0 -6.83924,-0.94089 -7.83771,-2.36984 -0.99848,-1.42894 -1.1485,-3.90317 -1.1485,-7.28766 h -2.43466 c 0,3.41473 -0.0244,6.38068 1.59061,8.69201 1.61506,2.31138 4.68846,3.41078 9.83027,3.41078 2.57103,0 4.56535,-0.25447 6.16805,-0.83748 1.6027,-0.58301 2.81232,-1.5488 3.57646,-2.79527 1.52831,-2.49301 1.42499,-5.70695 1.42499,-9.73691 0,-3.98715 -0.78022,-6.77531 -2.7674,-8.48067 -1.98717,-1.7054 -4.7909,-2.09844 -8.40211,-2.09844 -3.37154,0 -5.58484,-0.60699 -6.92246,-1.81677 -1.33762,-1.20979 -2.06376,-3.19247 -2.06376,-6.58648 0,-2.14828 0.11296,-4.43406 1.17092,-6.05829 1.05795,-1.62427 3.07674,-2.91618 7.8153,-2.91618 4.73348,0 6.669,1.30572 7.6725,2.93671 1.0035,1.63099 1.06236,3.92834 1.06236,6.03776 h 2.43465 c 0,-2.10942 0.0588,-4.91039 -1.42579,-7.32322 -1.48456,-2.41285 -4.52491,-4.09654 -9.74372,-4.09655 z"
       id="path973-1-4-6-8"
       inkscape:label="S" />
    <path
       id="rect623-7-2-25-9"
       style="color:#000000;fill:#000000;stroke-width:0.186208"
       d="m 555.14484,269.7619 v 18.15698 2.01846 20.23145 h 20.85517 v -2.23448 h -18.62069 v -17.99697 h 8.11673 v -2.01846 h -8.11673 v -15.9225 h 18.62069 v -2.23448 z"
       inkscape:label="E" />
    <path
       id="path3529-3-5-7-0"
       style="color:#000000;opacity:0.96;fill:#000000;stroke-width:0.188768;stroke-miterlimit:10"
       d="m 520.88276,269.75078 v 40.40688 h 2.0752 V 280.9015 l 11.29707,29.25616 h 1.93098 l 11.29707,-29.25616 v 29.25616 h 2.07556 v -40.40688 l -14.33793,37.13093 z"
       sodipodi:nodetypes="cccccccccccc"
       inkscape:label="M" />
    <path
       style="color:#000000;opacity:0.96;fill:#000000;stroke-width:0.186381;stroke-miterlimit:10"
       d="m 504.86897,269.75078 -10.42758,40.40507 h 2.11302 l 8.32075,-31.82218 8.37241,31.82399 h 2.04899 z"
       id="path2240-2-8"
       sodipodi:nodetypes="ccccccc"
       inkscape:label="A" />
    <path
       id="rect623-7-1-1-7-3"
       style="color:#000000;fill:#000000;stroke-width:0.186208"
       d="m 474.70345,269.75078 c -3.69436,0 -6.70344,3.00908 -6.70344,6.70345 v 26.99999 c 0,3.69438 3.00908,6.70344 6.70344,6.70344 h 7.44828 c 3.69437,0 6.70345,-3.00906 6.70345,-6.70344 v -12.10199 -2.23448 h -2.23448 -8.19311 v 2.23448 h 8.19311 v 12.10199 c 0,2.49513 -1.97384,4.46896 -4.46897,4.46896 h -7.44828 c -2.49512,0 -4.46896,-1.97383 -4.46896,-4.46896 v -26.99999 c 0,-2.49512 1.97385,-4.46897 4.46896,-4.46897 h 7.44828 c 2.49513,0 4.46897,1.97385 4.46897,4.46897 v 5.49455 h 2.23448 v -5.49455 c 0,-3.69437 -3.00908,-6.70345 -6.70345,-6.70345 z"
       inkscape:label="G" />
  </g>
  <g
     id="g650"
     inkscape:label="GAME*">
    <path
       id="path6951-4"
       style="color:#000000;opacity:0.96;fill:#000000;stroke-miterlimit:10"
       d="M 643.16407,0 632.83399,5.9628903 650.66993,36.855471 H 615.00001 V 48.78125 h 35.66992 l -17.83594,30.892579 10.33008,5.96289 17.83398,-30.89063 17.83594,30.89063 10.33008,-5.96289 -17.83594,-30.892579 h 35.67188 V 36.855471 H 671.32813 L 689.16407,5.9628903 678.83399,0 661.00001,30.89063 Z"
       inkscape:label="star" />
    <path
       id="rect623-7-2-25"
       style="color:#000000;fill:#000000"
       d="m 468.00001,37.8688 v 97.50975 10.83984 108.65039 h 112 v -12 h -100 v -96.65039 h 43.58985 V 135.37855 H 480.00001 V 49.8688 h 100 v -12 z"
       inkscape:label="E" />
    <path
       id="path3529-3-5-7"
       style="color:#000000;opacity:0.96;fill:#000000;stroke-width:1.01375;stroke-miterlimit:10;-inkscape-stroke:none"
       d="M 284.00001,37.809103 V 254.80909 h 11.14454 V 97.692554 L 355.814,254.80909 h 10.37006 L 426.85352,97.692554 V 254.80909 h 11.14649 V 37.809103 l -77,199.406847 z"
       sodipodi:nodetypes="cccccccccccc"
       inkscape:label="M" />
    <path
       style="color:#000000;opacity:0.96;fill:#000000;stroke-width:1.00093;stroke-miterlimit:10;-inkscape-stroke:none"
       d="m 198.00001,37.809109 -56,216.990191 h 11.34766 l 44.68554,-170.896921 44.9629,170.906711 h 11.0039 z"
       id="path2240-2"
       sodipodi:nodetypes="ccccccc"
       inkscape:label="A" />
    <path
       id="rect623-7-1-1-7"
       style="color:#000000;fill:#000000"
       d="m 36,37.809103 c -19.840164,0 -36,16.15984 -36,36.000001 V 218.80909 c 0,19.84016 16.159836,36 36,36 h 40.000004 c 19.840154,0 35.999996,-16.15984 35.999996,-36 v -64.99219 -12 H 99.999998 55.999999 v 12 h 43.999999 v 64.99219 c 0,13.39975 -10.60026,24 -23.999994,24 H 36 c -13.399751,0 -24,-10.60025 -24,-24 V 73.809104 c 0,-13.399746 10.600249,-24 24,-24 h 40.000004 c 13.399734,0 23.999994,10.600254 23.999994,24 V 103.3169 H 112 V 73.809104 c 0,-19.84016 -16.159842,-36 -35.999996,-36 z"
       inkscape:label="G" />
  </g>
</svg>
